<svg xmlns="http://www.w3.org/2000/svg" width="1012" height="865.999" viewBox="0 0 1012 865.999">
  <path id="logo" d="M841.459,864.13a91.527,91.527,0,0,1-32.9-13.843A92.255,92.255,0,0,1,775.23,809.81a91.62,91.62,0,0,1-5.361-17.269A92.692,92.692,0,0,1,768,774c0-3.054.15-6.107.449-9.138l-118.357-50.24A175.058,175.058,0,0,1,328.91,582.737L216.947,544.184q-2.229,3.927-4.757,7.672a116.33,116.33,0,0,1-51.037,42.027,115.374,115.374,0,0,1-21.775,6.759,117.113,117.113,0,0,1-46.756,0,115.379,115.379,0,0,1-41.478-17.454A116.336,116.336,0,0,1,9.116,532.152a115.412,115.412,0,0,1-6.759-21.775,117.115,117.115,0,0,1,0-46.757,115.379,115.379,0,0,1,17.454-41.478,116.33,116.33,0,0,1,51.037-42.027,115.381,115.381,0,0,1,21.774-6.759,117.11,117.11,0,0,1,46.756,0,115.374,115.374,0,0,1,41.479,17.454,116.33,116.33,0,0,1,42.027,51.037,115.383,115.383,0,0,1,6.759,21.774,117.2,117.2,0,0,1,.889,41.879l113.576,39.108A175.173,175.173,0,0,1,468.177,455.53l-6.911-197.894a128.769,128.769,0,1,1,40.9-3.428l6.955,199.139a174.553,174.553,0,0,1,118,56.535l195.71-142.191a100.857,100.857,0,0,1-11.775-30.736,102.5,102.5,0,0,1,0-40.911,100.957,100.957,0,0,1,15.273-36.294,101.8,101.8,0,0,1,44.657-36.773,100.984,100.984,0,0,1,19.052-5.915,102.5,102.5,0,0,1,40.912,0,100.961,100.961,0,0,1,36.293,15.273,101.787,101.787,0,0,1,36.774,44.656,101.012,101.012,0,0,1,5.915,19.053,102.5,102.5,0,0,1,0,40.911,100.958,100.958,0,0,1-15.273,36.294,101.8,101.8,0,0,1-44.657,36.774,101.007,101.007,0,0,1-19.052,5.915,102.5,102.5,0,0,1-40.912,0,100.962,100.962,0,0,1-36.293-15.273q-1.683-1.135-3.322-2.342L651.091,543.15a175.571,175.571,0,0,1,14.994,133.72l115.482,49.019q1.037-1.687,2.145-3.327a92.271,92.271,0,0,1,40.477-33.332,91.561,91.561,0,0,1,17.269-5.36,92.891,92.891,0,0,1,37.083,0,91.487,91.487,0,0,1,32.9,13.843,92.271,92.271,0,0,1,33.332,40.478,91.55,91.55,0,0,1,5.36,17.269,92.888,92.888,0,0,1,0,37.083,91.488,91.488,0,0,1-13.843,32.9,92.257,92.257,0,0,1-40.477,33.331,91.492,91.492,0,0,1-17.269,5.361,92.933,92.933,0,0,1-37.083,0Zm-9.094-155.551A71.227,71.227,0,1,0,860,703,70.982,70.982,0,0,0,832.364,708.579ZM97.862,398.828A89.5,89.5,0,0,0,65.68,412.37a90.239,90.239,0,0,0-32.607,39.6,89.457,89.457,0,0,0-5.244,16.894,90.862,90.862,0,0,0,0,36.276A89.523,89.523,0,0,0,41.37,537.319a90.268,90.268,0,0,0,39.6,32.608,89.527,89.527,0,0,0,16.895,5.243,90.858,90.858,0,0,0,36.275,0,89.493,89.493,0,0,0,32.182-13.541,90.272,90.272,0,0,0,32.607-39.6,89.541,89.541,0,0,0,5.244-16.894,90.862,90.862,0,0,0,0-36.276,89.517,89.517,0,0,0-13.542-32.182,90.259,90.259,0,0,0-39.6-32.607,89.457,89.457,0,0,0-16.894-5.244,90.858,90.858,0,0,0-36.275,0ZM894.68,239.594a78.058,78.058,0,0,0-28.07,11.812,78.73,78.73,0,0,0-28.441,34.538,78.133,78.133,0,0,0-4.574,14.735,79.27,79.27,0,0,0,0,31.641,78.045,78.045,0,0,0,11.812,28.069,78.726,78.726,0,0,0,34.537,28.442A78.145,78.145,0,0,0,894.68,393.4a79.265,79.265,0,0,0,31.64,0,78.059,78.059,0,0,0,28.07-11.812,78.744,78.744,0,0,0,28.441-34.538,78.15,78.15,0,0,0,4.574-14.736,79.27,79.27,0,0,0,0-31.641,78.063,78.063,0,0,0-11.812-28.069,78.731,78.731,0,0,0-34.538-28.441,78.124,78.124,0,0,0-14.736-4.574,79.264,79.264,0,0,0-31.64,0ZM450.847,31.031A99.464,99.464,0,0,0,415.09,46.078a100.292,100.292,0,0,0-36.23,44,99.47,99.47,0,0,0-5.827,18.771,100.993,100.993,0,0,0,0,40.307,99.481,99.481,0,0,0,15.047,35.757,100.292,100.292,0,0,0,44,36.23,99.489,99.489,0,0,0,18.771,5.827,100.994,100.994,0,0,0,40.307,0,99.481,99.481,0,0,0,35.757-15.047,100.286,100.286,0,0,0,36.23-44,99.443,99.443,0,0,0,5.828-18.77,101,101,0,0,0,0-40.307,99.464,99.464,0,0,0-15.047-35.757,100.286,100.286,0,0,0-44-36.23,99.461,99.461,0,0,0-18.77-5.827,100.994,100.994,0,0,0-40.307,0Z" fill="#B3FCFF"/>
</svg>
